<svg width="100%" height="100%" viewBox="0 0 2539 424" version="1.1" xmlns="http://www.w3.org/2000/svg" xmlns:xlink="http://www.w3.org/1999/xlink" xml:space="preserve" xmlns:serif="http://www.serif.com/" style="fill-rule:evenodd;clip-rule:evenodd;stroke-linejoin:round;stroke-miterlimit:2;">
		<g id="Layer-1" serif:id="Layer 1" transform="matrix(4.16667,0,0,4.16667,0,0)">
				<g transform="matrix(1,0,0,1,12.823,35.465)">
						<path d="M0,51.489L0,21.589C0,8.96 8.096,-0.108 20.725,-0.108C30.872,-0.108 36.269,6.693 37.025,9.068L37.241,9.068C37.996,6.693 43.393,-0.108 53.54,-0.108C66.169,-0.108 74.265,8.959 74.265,21.589L74.265,51.489L64.335,51.489L64.335,22.344C64.335,14.141 60.664,9.176 53.216,9.176C45.768,9.176 42.098,14.141 42.098,22.56L42.098,51.597L32.167,51.597L32.167,22.56C32.167,14.141 28.498,9.176 21.049,9.176C13.601,9.176 9.931,14.141 9.931,22.344L9.931,51.489L0,51.489Z" style="fill:rgb(3,4,5);fill-rule:nonzero;"/>
				</g>
				<g transform="matrix(1,0,0,1,136.418,61.6954)">
						<path d="M0,0C0,-10.686 -7.771,-17.271 -15.975,-17.271C-24.395,-17.271 -32.167,-11.01 -32.167,0C-32.167,11.01 -24.395,17.271 -15.975,17.271C-7.771,17.271 0,10.686 0,0M0.864,-25.259L9.607,-25.259L9.607,25.259L0.864,25.259L0,17.487C-3.777,23.316 -10.686,26.338 -17.594,26.338C-30.439,26.338 -42.098,16.731 -42.098,0C-42.098,-16.731 -30.439,-26.338 -17.594,-26.338C-10.686,-26.338 -3.777,-23.315 0,-17.487L0.864,-25.259Z" style="fill:rgb(3,4,5);fill-rule:nonzero;"/>
				</g>
				<g transform="matrix(1,0,0,1,154.66,52.0882)">
						<path d="M0,19.214L9.931,19.214C10.47,24.395 14.68,27.526 19.754,27.526C25.475,27.526 28.066,24.611 28.066,21.589C28.066,10.902 1.08,16.839 1.08,-1.943C1.08,-9.175 7.017,-16.731 18.567,-16.731C28.713,-16.731 36.053,-11.01 37.024,-0.755L27.094,-0.755C26.338,-5.505 23.315,-8.311 18.567,-8.311C14.249,-8.311 11.011,-5.829 11.011,-1.943C11.011,8.744 37.996,2.483 37.996,21.589C37.996,30.008 30.116,35.945 19.754,35.945C8.636,35.945 0.54,29.469 0,19.214" style="fill:rgb(3,4,5);fill-rule:nonzero;"/>
				</g>
				<g transform="matrix(1,0,0,1,239.827,61.6953)">
						<path d="M0,0C0,-10.039 -6.908,-17.271 -16.191,-17.271C-25.474,-17.271 -32.382,-10.039 -32.382,0C-32.382,10.039 -25.474,17.271 -16.191,17.271C-6.908,17.271 0,10.039 0,0M-42.313,0C-42.313,-14.788 -31.087,-26.338 -16.191,-26.338C-1.295,-26.338 9.931,-14.788 9.931,0C9.931,14.788 -1.295,26.338 -16.191,26.338C-31.087,26.338 -42.313,14.788 -42.313,0" style="fill:rgb(3,4,5);fill-rule:nonzero;"/>
				</g>
				<g transform="matrix(1,0,0,1,257.205,35.357)">
						<path d="M0,51.597L0,21.697C0,9.068 8.42,0 21.913,0C35.406,0 43.825,9.068 43.825,21.697L43.825,51.597L33.894,51.597L33.894,22.452C33.894,14.141 29.901,9.068 21.913,9.068C13.925,9.068 9.931,14.141 9.931,22.452L9.931,51.597L0,51.597Z" style="fill:rgb(3,4,5);fill-rule:nonzero;"/>
				</g>
				<g transform="matrix(1,0,0,1,331.901,52.0881)">
						<path d="M0,19.214L9.93,19.214C10.47,24.395 14.68,27.526 19.753,27.526C25.474,27.526 28.065,24.611 28.065,21.589C28.065,10.902 1.079,16.839 1.079,-1.943C1.079,-9.175 7.016,-16.731 18.566,-16.731C28.712,-16.731 36.053,-11.01 37.024,-0.755L27.093,-0.755C26.337,-5.505 23.315,-8.311 18.566,-8.311C14.248,-8.311 11.01,-5.829 11.01,-1.943C11.01,8.744 37.996,2.483 37.996,21.589C37.996,30.008 30.116,35.945 19.753,35.945C8.635,35.945 0.54,29.469 0,19.214" style="fill:rgb(3,4,5);fill-rule:nonzero;"/>
				</g>
				<g transform="matrix(1,0,0,1,405.734,62.2343)">
						<path d="M0,-17.378L-14.68,-17.378L-14.68,7.233C-14.68,14.357 -11.333,16.408 -4.533,16.408C-3.886,16.408 -3.022,16.408 -0.755,16.3L-0.755,24.612C-3.022,25.151 -5.181,25.367 -7.232,25.367C-17.055,25.367 -24.611,19.215 -24.611,8.42L-24.718,-17.378L-33.678,-17.378L-33.678,-25.798L-24.718,-25.798L-24.718,-42.745L-14.68,-42.745L-14.68,-25.798L0,-25.798L0,-17.378Z" style="fill:rgb(3,4,5);fill-rule:nonzero;"/>
				</g>
				<g transform="matrix(1,0,0,1,412.858,58.1329)">
						<path d="M0,8.204L0,-21.696L9.931,-21.696L9.931,7.448C9.931,15.652 13.71,20.617 21.481,20.617C29.253,20.617 33.031,15.652 33.031,7.448L33.031,-21.696L42.962,-21.696L42.962,8.204C42.962,20.833 34.758,29.9 21.481,29.9C8.204,29.9 0,20.833 0,8.204" style="fill:rgb(3,4,5);fill-rule:nonzero;"/>
				</g>
				<g transform="matrix(1,0,0,1,504.5,39.8912)">
						<path d="M0,21.804C0,11.118 -7.556,4.533 -15.975,4.533C-24.502,4.533 -31.734,10.794 -31.734,21.804C-31.734,32.814 -24.502,39.075 -15.975,39.075C-7.556,39.075 0,32.49 0,21.804M-0.324,-26.338L9.607,-26.338L9.607,47.063L0.864,47.063L0,39.399C-3.67,45.12 -10.146,48.142 -17.379,48.142C-30.115,48.142 -41.665,38.535 -41.665,21.804C-41.665,5.073 -30.115,-4.534 -17.379,-4.534C-10.362,-4.534 -3.993,-1.728 -0.324,3.67L-0.324,-26.338Z" style="fill:rgb(3,4,5);fill-rule:nonzero;"/>
				</g>
				<g transform="matrix(1,0,0,1,526.628,13.8769)">
						<path d="M0,73.077L0,22.56L9.93,22.56L9.93,73.077L0,73.077ZM-1.511,6.476C-1.511,2.806 1.403,0 4.965,0C8.527,0 11.442,2.806 11.442,6.476C11.442,10.039 8.527,12.845 4.965,12.845C1.403,12.845 -1.511,10.039 -1.511,6.476" style="fill:rgb(3,4,5);fill-rule:nonzero;"/>
				</g>
				<g transform="matrix(1,0,0,1,586.535,61.6952)">
						<path d="M0,0C0,-10.039 -6.908,-17.271 -16.191,-17.271C-25.474,-17.271 -32.383,-10.039 -32.383,0C-32.383,10.039 -25.474,17.271 -16.191,17.271C-6.908,17.271 0,10.039 0,0M-42.314,0C-42.314,-14.788 -31.088,-26.338 -16.191,-26.338C-1.295,-26.338 9.93,-14.788 9.93,0C9.93,14.788 -1.295,26.338 -16.191,26.338C-31.088,26.338 -42.314,14.788 -42.314,0" style="fill:rgb(3,4,5);fill-rule:nonzero;"/>
				</g>
		</g>
</svg>